<?xml version="1.0" encoding="utf-8"?>
<!-- Generator: Adobe Illustrator 21.0.0, SVG Export Plug-In . SVG Version: 6.00 Build 0)  -->
<svg id="xl" version="1.1" xmlns="http://www.w3.org/2000/svg" xmlns:xlink="http://www.w3.org/1999/xlink" x="0px" y="0px"
	 viewBox="0 0 250.8 238.4" style="enable-background:new 0 0 250.8 238.4;" xml:space="preserve">
<g>
	<g>
		<path style="fill:#FFFFFF;" d="M139.9,238.4h-38.4l-31.3-94.6L39,238.4H0.4l42.3-123.5L0,0h38.7l31.6,86.9L101.9,0h38.7
			L97.9,114.4L139.9,238.4z M105.2,233.4H133L92.6,114.3L133.4,5h-28l-35.1,96.5L35.2,5h-28l40.7,109.9l-0.3,0.8L7.4,233.4h28
			l34.9-105.5L105.2,233.4z"/>
		<path style="fill:#FFFFFF;" d="M250.8,238.4h-96.7V0h38.3v208.4h58.4V238.4z M159.1,233.4h86.7v-20h-58.4V5h-28.3V233.4z"/>
	</g>
</g>
</svg>
